#!OML:ASF I:\Random Stuff\random\construction\7_22_03\Session 2\subj1.ASF
:FULLY-SPECIFIED
:DEGREES
2165
root 4.23623 17.6753 -8.33824 25.778 -16.3813 -13.1878
lowerback 17.45 -0.403626 -8.15799
upperback 6.87613 -2.37272 -9.70335
thorax -2.46114 -1.21409 -5.32379
lowerneck -22.6736 0.885964 -6.6988
upperneck 39.2118 3.73523 1.31353
head 18.4724 0.485463 2.5718
rclavicle 4.13472e-014 -2.22639e-014
rhumerus -47.562 27.9785 -68.0312
rradius 118.122
rwrist -39.3192
rhand -20.481 11.7817
rfingers 7.12502
rthumb 5.87546 -18.1168
lclavicle 4.13472e-014 -2.22639e-014
lhumerus -3.24283 -49.873 80.8639
lradius 64.2409
lwrist 408.924
lhand -19.8186 72.5368
lfingers 7.12502
lthumb -173.485 1517.58
rfemur -19.6408 -4.8379 37.551
rtibia 2.34566e-014
rfoot -3.67309 4.94015
rtoes -20.2157
lfemur -42.7298 -6.54794 6.53872
ltibia 32.1057
lfoot -11.3835 5.91569
ltoes -33.9319
2166
root 4.24007 17.6761 -8.34014 25.7259 -16.4229 -13.201
lowerback 17.4496 -0.413652 -8.25117
upperback 6.86688 -2.39985 -9.67337
thorax -2.46618 -1.22853 -5.23294
lowerneck -22.6725 0.92277 -6.73401
upperneck 39.1942 3.83815 1.23636
head 18.4585 0.509099 2.56238
rclavicle 3.18055e-015 -8.5875e-014
rhumerus -47.3679 28.1572 -68.0238
rradius 118.088
rwrist -38.845
rhand -20.4285 11.9749
rfingers 7.12502
rthumb 5.92609 -17.9222
lclavicle 3.18055e-015 -8.5875e-014
lhumerus -3.29322 -49.7143 80.8775
lradius 64.2185
lwrist 409.13
lhand -20.7543 74.7942
lfingers 7.12502
lthumb -174.388 1515.3
rfemur -19.563 -4.82836 37.5345
rtibia -1.59028e-014
rfoot -3.70767 4.95058
rtoes -20.3532
lfemur -42.6512 -6.54244 6.52098
ltibia 32.0907
lfoot -11.3931 5.85651
ltoes -33.6132
2167
root 4.245 17.6751 -8.34314 25.6548 -16.4862 -13.1823
lowerback 17.4599 -0.41397 -8.32235
upperback 6.86475 -2.41437 -9.6831
thorax -2.47132 -1.23644 -5.20092
lowerneck -22.6663 0.953452 -6.74852
upperneck 39.2119 3.88705 1.24419
head 18.4634 0.525505 2.57901
rclavicle -3.18055e-015 3.18055e-014
rhumerus -47.0912 28.2042 -67.931
rradius 118.006
rwrist -38.524
rhand -20.2432 12.096
rfingers 7.12502
rthumb 6.10498 -17.7961
lclavicle -3.18055e-015 3.18055e-014
lhumerus -3.33855 -49.6508 80.8924
lradius 64.1021
lwrist 409.219
lhand -14.4672 70.3641
lfingers 7.12502
lthumb -168.321 1519.98
rfemur -19.4809 -4.8157 37.4795
rtibia -2.0276e-014
rfoot -3.75678 4.94324
rtoes -20.6858
lfemur -42.5784 -6.5936 6.48734
ltibia 32.0911
lfoot -11.4236 5.89602
ltoes -33.6949
2168
root 4.25191 17.6726 -8.34675 25.5855 -16.537 -13.1967
lowerback 17.4894 -0.412378 -8.33485
upperback 6.87796 -2.41781 -9.6868
thorax -2.47225 -1.23859 -5.19734
lowerneck -22.6966 0.944096 -6.79288
upperneck 39.2148 3.87357 1.29455
head 18.4707 0.520327 2.60841
rclavicle 1.59028e-014 -6.99722e-014
rhumerus -46.6551 28.1397 -67.6659
rradius 117.835
rwrist -38.2529
rhand -19.6949 12.2767
rfingers 7.12502
rthumb 6.63436 -17.5994
lclavicle 1.59028e-014 -6.99722e-014
lhumerus -3.32983 -49.5584 80.878
lradius 64.0617
lwrist 409.098
lhand -10.5956 67.6642
lfingers 7.12502
lthumb -164.59 1522.93
rfemur -19.4067 -4.80491 37.452
rtibia -3.81667e-014
rfoot -3.78567 4.91762
rtoes -20.5723
lfemur -42.5216 -6.56458 6.44544
ltibia 32.1202
lfoot -11.4646 5.86781
ltoes -33.6734
2169
root 4.2594 17.6686 -8.35029 25.5338 -16.5711 -13.2764
lowerback 17.5084 -0.379758 -8.23302
upperback 6.89677 -2.3619 -9.70385
thorax -2.46562 -1.21068 -5.28442
lowerneck -22.6633 0.894184 -6.82496
upperneck 39.1615 3.76267 1.39711
head 18.4321 0.491407 2.63692
rclavicle 6.36111e-015 2.54444e-014
rhumerus -46.1931 27.8666 -67.3462
rradius 117.567
rwrist -37.9163
rhand -18.8529 12.4935
rfingers 7.12502
rthumb 7.44712 -17.3554
lclavicle 6.36111e-015 2.54444e-014
lhumerus -3.27265 -49.7494 80.7987
lradius 64.0444
lwrist 409.262
lhand -9.77218 66.7045
lfingers 7.12502
lthumb -163.797 1523.95
rfemur -19.3351 -4.78135 37.4914
rtibia -3.10104e-014
rfoot -3.80326 4.90185
rtoes -20.3318
lfemur -42.4757 -6.45009 6.44201
ltibia 32.1799
lfoot -11.5029 5.715
ltoes -33.4255
2170
root 4.26913 17.6632 -8.35397 25.4706 -16.573 -13.3146
lowerback 17.5367 -0.381321 -8.11682
upperback 6.91404 -2.34967 -9.73336
thorax -2.46823 -1.20355 -5.38474
lowerneck -22.5954 0.873546 -6.8666
upperneck 39.1024 3.68839 1.51782
head 18.3777 0.478186 2.6821
rclavicle 3.18055e-014 3.81667e-014
rhumerus -45.6755 27.5597 -66.9627
rradius 117.192
rwrist -37.5174
rhand -17.9681 12.5342
rfingers 7.12502
rthumb 8.30111 -17.2827
lclavicle 3.18055e-014 3.81667e-014
lhumerus -3.19766 -49.8815 80.7721
lradius 63.9481
lwrist 409.385
lhand -9.92986 66.5409
lfingers 7.12502
lthumb -163.949 1524.1
rfemur -19.2806 -4.80299 37.5071
rtibia 3.97569e-015
rfoot -3.81977 4.89454
rtoes -20.4904
lfemur -42.4755 -6.39654 6.42503
ltibia 32.2722
lfoot -11.5983 5.59231
ltoes -33.3577
2171
root 4.28192 17.6585 -8.35854 25.4203 -16.5681 -13.3317
lowerback 17.5692 -0.438906 -8.03321
upperback 6.931 -2.41426 -9.7483
thorax -2.47426 -1.2343 -5.4353
lowerneck -22.6014 0.901282 -6.90049
upperneck 39.0744 3.72105 1.56974
head 18.3573 0.494385 2.71825
rclavicle 1.27222e-014 -3.81667e-014
rhumerus -44.9842 27.3673 -66.4427
rradius 116.69
rwrist -37.2065
rhand -17.1198 12.5193
rfingers 7.12502
rthumb 9.11971 -17.2635
lclavicle 1.27222e-014 -3.81667e-014
lhumerus -3.14473 -49.7501 80.8306
lradius 63.79
lwrist 409.301
lhand -9.8753 66.4568
lfingers 7.12502
lthumb -163.896 1524.19
rfemur -19.2503 -4.83948 37.4938
rtibia 2.90226e-014
rfoot -3.85271 4.89249
rtoes -20.283
lfemur -42.5204 -6.36797 6.39289
ltibia 32.3946
lfoot -11.6941 5.50679
ltoes -33.6438
2172
root 4.2946 17.6541 -8.36507 25.3972 -16.6394 -13.4105
lowerback 17.5946 -0.487695 -8.0096
upperback 6.93152 -2.47772 -9.74713
thorax -2.49092 -1.26526 -5.43441
lowerneck -22.6279 0.990961 -6.86419
upperneck 39.0452 3.84027 1.56773
head 18.3392 0.546153 2.73496
rclavicle -3.18055e-014 -4.45278e-014
rhumerus -44.148 27.3142 -65.8311
rradius 116.131
rwrist -36.9537
rhand -16.3297 12.4658
rfingers 7.12502
rthumb 9.88208 -17.2823
lclavicle -3.18055e-014 -4.45278e-014
lhumerus -3.16829 -49.4795 80.8792
lradius 63.7171
lwrist 408.93
lhand -9.47964 66.4604
lfingers 7.12502
lthumb -163.515 1524.22
rfemur -19.2135 -4.78116 37.5035
rtibia -4.77083e-014
rfoot -3.91568 4.88303
rtoes -19.9589
lfemur -42.5423 -6.25222 6.38287
ltibia 32.5448
lfoot -11.7424 5.40438
ltoes -33.8115
2173
root 4.30413 17.6493 -8.37325 25.3947 -16.8137 -13.5359
lowerback 17.6027 -0.450265 -7.99535
upperback 6.90996 -2.43623 -9.79956
thorax -2.51978 -1.24471 -5.50865
lowerneck -22.5641 1.09343 -6.6533
upperneck 39.0135 3.91107 1.52385
head 18.3041 0.600319 2.68919
rclavicle -1.59028e-014 -2.54444e-014
rhumerus -43.3227 27.104 -65.1931
rradius 115.428
rwrist -36.5863
rhand -15.1551 12.6507
rfingers 7.12502
rthumb 11.0151 -17.0403
lclavicle -1.59028e-014 -2.54444e-014
lhumerus -3.17354 -49.481 80.7959
lradius 63.7056
lwrist 408.611
lhand -9.17108 66.4704
lfingers 7.12502
lthumb -163.218 1524.23
rfemur -19.1767 -4.60534 37.5261
rtibia 2.38542e-015
rfoot -3.96182 4.86209
rtoes -20.0925
lfemur -42.5261 -6.07707 6.39934
ltibia 32.7345
lfoot -11.8422 5.38379
ltoes -33.6608
2174
root 4.32021 17.6408 -8.38083 25.3641 -16.7868 -13.5146
lowerback 17.6697 -0.460155 -7.81532
upperback 6.91994 -2.43584 -9.91162
thorax -2.55773 -1.24152 -5.73436
lowerneck -22.4993 1.14276 -6.42285
upperneck 38.9976 3.89288 1.48785
head 18.2842 0.624039 2.62611
rclavicle -3.18055e-015 -5.08889e-014
rhumerus -42.4701 26.6211 -64.4561
rradius 114.474
rwrist -36.0537
rhand -13.3568 13.1874
rfingers 7.12502
rthumb 12.7492 -16.4034
lclavicle -3.18055e-015 -5.08889e-014
lhumerus -3.03208 -49.8604 80.5886
lradius 63.6863
lwrist 408.703
lhand -9.29054 66.3892
lfingers 7.12502
lthumb -163.333 1524.31
rfemur -19.247 -4.65339 37.52
rtibia 2.50469e-014
rfoot -4.0171 4.78152
rtoes -22.1434
lfemur -42.6751 -6.05522 6.33528
ltibia 32.9222
lfoot -11.8898 5.3174
ltoes -33.6114
2175
root 4.32912 17.6307 -8.39033 25.3607 -16.9442 -13.4931
lowerback 17.6617 -0.441645 -7.86676
upperback 6.92472 -2.42634 -10.0133
thorax -2.54952 -1.23761 -5.82061
lowerneck -22.5029 1.26779 -6.33711
upperneck 38.9814 4.03043 1.51835
head 18.2663 0.695169 2.65313
rclavicle 3.81667e-014 -2.54444e-014
rhumerus -41.4448 26.3528 -63.7343
rradius 113.503
rwrist -35.4856
rhand -11.9114 13.3521
rfingers 7.12502
rthumb 14.1424 -16.1465
lclavicle 3.81667e-014 -2.54444e-014
lhumerus -2.83263 -50.0667 80.3279
lradius 63.6677
lwrist 409.011
lhand -9.54218 66.2265
lfingers 7.12502
lthumb -163.576 1524.45
rfemur -19.3357 -4.50716 37.4961
rtibia -2.36554e-014
rfoot -4.10813 4.62661
rtoes -26.3267
lfemur -42.7355 -5.81365 6.17975
ltibia 33.0867
lfoot -11.9267 5.14701
ltoes -33.8118
2176
root 4.33481 17.6267 -8.4003 25.363 -17.1569 -13.4497
lowerback 17.6178 -0.428982 -8.08311
upperback 6.93499 -2.44149 -10.0608
thorax -2.50728 -1.24845 -5.74885
lowerneck -22.5221 1.4808 -6.34001
upperneck 38.9626 4.35842 1.50631
head 18.2391 0.820306 2.71502
rclavicle -3.18055e-014 -3.18055e-015
rhumerus -40.36 26.368 -62.9844
rradius 112.641
rwrist -35.1874
rhand -11.0568 13.1341
rfingers 7.12502
rthumb 14.9658 -16.3052
lclavicle -3.18055e-014 -3.18055e-015
lhumerus -2.57597 -49.9893 80.1615
lradius 63.5831
lwrist 409.213
lhand -9.5646 66.1056
lfingers 7.12502
lthumb -163.597 1524.57
rfemur -19.3928 -4.32873 37.4058
rtibia -8.15017e-015
rfoot -4.15614 4.52728
rtoes -28.597
lfemur -42.755 -5.58365 6.00131
ltibia 33.2116
lfoot -11.9474 5.04063
ltoes -34.3289
2177
root 4.34103 17.6265 -8.41014 25.3725 -17.3019 -13.4591
lowerback 17.6233 -0.364903 -8.36213
upperback 6.94514 -2.39784 -9.96288
thorax -2.47951 -1.2315 -5.49219
lowerneck -22.5199 1.68227 -6.39374
upperneck 38.9618 4.74278 1.37186
head 18.2196 0.941498 2.74033
rclavicle -4.45278e-014 -4.13472e-014
rhumerus -39.3746 26.5048 -62.077
rradius 111.877
rwrist -35.6392
rhand -10.5522 12.7333
rfingers 7.12502
rthumb 15.4518 -16.6692
lclavicle -4.45278e-014 -4.13472e-014
lhumerus -2.27235 -49.8691 80.2327
lradius 63.4196
lwrist 409.171
lhand -10.2662 67.113
lfingers 7.12502
lthumb -164.273 1523.51
rfemur -19.421 -4.20789 37.351
rtibia 3.43897e-014
rfoot -4.11097 4.53459
rtoes -28.5871
lfemur -42.7711 -5.46611 5.93907
ltibia 33.3036
lfoot -11.9498 5.04621
ltoes -34.5709
2178
root 4.34938 17.6246 -8.42094 25.3843 -17.3605 -13.5286
lowerback 17.6924 -0.309798 -8.4656
upperback 6.95922 -2.34916 -9.90487
thorax -2.49145 -1.20924 -5.37959
lowerneck -22.4987 1.86395 -6.36795
upperneck 39.0112 5.04026 1.292
head 18.2288 1.04614 2.76045
rclavicle 2.54444e-014 -3.18055e-015
rhumerus -38.6235 26.6725 -61.4048
rradius 111.266
rwrist -36.8711
rhand -10.4699 11.8559
rfingers 7.12502
rthumb 15.5311 -17.5404
lclavicle 2.54444e-014 -3.18055e-015
lhumerus -1.96039 -49.8345 80.2228
lradius 63.2456
lwrist 408.824
lhand -12.3774 70.2467
lfingers 7.12502
lthumb -166.307 1520.22
rfemur -19.4533 -4.15153 37.3637
rtibia -1.86858e-014
rfoot -4.00577 4.60758
rtoes -27.4636
lfemur -42.8002 -5.44728 6.00472
ltibia 33.3692
lfoot -11.9536 5.08551
ltoes -34.2649
